<?xml version="1.0" encoding="utf-8"?>
<!-- Generator: Adobe Illustrator 16.0.0, SVG Export Plug-In . SVG Version: 6.00 Build 0)  -->
<!DOCTYPE svg PUBLIC "-//W3C//DTD SVG 1.1//EN" "http://www.w3.org/Graphics/SVG/1.1/DTD/svg11.dtd">
<svg version="1.1" id="Capa_1" xmlns="http://www.w3.org/2000/svg" xmlns:xlink="http://www.w3.org/1999/xlink" x="0px" y="0px"
	 width="841.891px" height="424px" viewBox="0 0 841.891 424" enable-background="new 0 0 841.891 424" xml:space="preserve">
<linearGradient id="SVGID_1_" gradientUnits="userSpaceOnUse" x1="7.0024" y1="153.106" x2="749.0024" y2="431.1059">
	<stop  offset="0" style="stop-color:#4559A4"/>
	<stop  offset="0.9853" style="stop-color:#43BFEE"/>
</linearGradient>
<path fill="url(#SVGID_1_)" d="M387.422,416.348c-18.445,0-35.158-3.494-49.674-10.386c-17.479-8.153-31.265-20.856-40.955-37.745
	c-10.9-18.734-16.433-43.249-16.433-72.842c0-29.421,5.532-53.848,16.442-72.602c9.743-16.733,23.525-29.341,40.966-37.479
	c14.493-6.881,31.207-10.375,49.652-10.375c28.624,0,54.34,8.918,72.407,25.109c23.003,20.879,34.653,52.95,34.653,95.345
	c0,42.259-11.645,74.411-34.615,95.571C441.84,407.335,416.121,416.348,387.422,416.348z M387.422,230.26
	c-33.293,0-49.478,21.314-49.478,65.156c0,44.139,16.185,65.59,49.478,65.59c33.292,0,49.476-21.451,49.476-65.59
	C436.896,251.575,420.714,230.26,387.422,230.26z"/>
<g>
	<linearGradient id="SVGID_2_" gradientUnits="userSpaceOnUse" x1="33.8398" y1="81.4751" x2="775.8398" y2="359.4751">
		<stop  offset="0" style="stop-color:#4559A4"/>
		<stop  offset="0.9853" style="stop-color:#43BFEE"/>
	</linearGradient>
	<path fill="url(#SVGID_2_)" d="M230.82,258.48h-58.698V126.589c0-26.149-2.819-42.583-9.144-53.285
		c-6.555-10.84-18.072-15.901-36.229-15.901c-12.623,0-24.109,2.468-34.146,7.335c-8.693,4.213-14.688,9.674-18.371,13.819V258.48
		H15.536V10.016h50.958V30.78c5.762-5.585,12.254-10.36,19.384-14.251c15.381-8.388,33.035-12.467,53.972-12.467
		c16.917,0,31.654,2.933,43.804,8.719c12.029,6.016,21.629,14.82,29.271,26.854c8.414-9.607,17.954-17.28,28.415-22.844
		c16.562-8.457,35.28-12.729,55.692-12.729c26.712,0,47.018,7.182,62.073,21.954c18.788,18.787,28.303,49.211,28.303,90.452v35.75
		l-6.741,0.271c-15.237,0.614-29.539,3.348-42.508,8.129l-9.449,3.483v-37.513c0-25.528-2.831-42.397-8.907-53.092
		c-6.38-10.971-17.593-16.095-35.275-16.095c-13.475,0-25.723,3.094-36.407,9.195c-7.831,4.353-14.798,9.981-19.812,15.981
		c1.713,9.792,2.512,20.616,2.512,33.888L230.82,258.48L230.82,258.48z"/>
</g>
<g>
	<linearGradient id="SVGID_3_" gradientUnits="userSpaceOnUse" x1="73.9395" y1="-25.5537" x2="815.9395" y2="252.4463">
		<stop  offset="0" style="stop-color:#4559A4"/>
		<stop  offset="0.9853" style="stop-color:#43BFEE"/>
	</linearGradient>
	<path fill="url(#SVGID_3_)" d="M592.884,325.16H535.97L428.035,31.707h60.879l77.15,225.711L642.57,31.707h58.252L592.884,325.16z"
		/>
</g>
<g>
	<linearGradient id="SVGID_4_" gradientUnits="userSpaceOnUse" x1="46.522" y1="47.6255" x2="788.522" y2="325.6255">
		<stop  offset="0" style="stop-color:#4559A4"/>
		<stop  offset="0.9853" style="stop-color:#43BFEE"/>
	</linearGradient>
	<path fill="url(#SVGID_4_)" d="M826.529,302.598c0-26.035-5.066-48.42-15.067-66.539c-8.717-15.771-21.352-27.808-37.562-35.771
		c-16.951-8.327-33.909-10.075-45.147-10.075c-25.846,0-49.372,9.043-66.269,25.482c-20.605,20.32-31.051,49.711-31.051,87.356
		c0,37.968,10.047,67.271,29.859,87.083c17.145,17.146,40.943,26.213,68.828,26.213c12.513,0,36.674-2.027,57.91-15.603
		c21.146-13.509,33.612-34.322,37.057-61.864l1.304-10.379H774.84l-1.33,7.65c-3.912,22.492-17.658,33.427-42.016,33.427
		c-19.581,0-42.426-5.976-46.76-51.818h141.794L826.529,302.598L826.529,302.598z M678.716,282.632l0.508-3.519
		c4.719-32.65,21.688-49.203,50.445-49.203c27.851,0,44.719,17.033,48.771,49.259l0.432,3.463H678.716z"/>
</g>
</svg>
