<?xml version="1.0" encoding="UTF-8"?>
<svg width="109px" height="105px" viewBox="0 0 109 105" version="1.1" xmlns="http://www.w3.org/2000/svg" xmlns:xlink="http://www.w3.org/1999/xlink">
    <!-- Generator: Sketch 56.3 (81716) - https://sketch.com -->
    <title>Group 36</title>
    <desc>Created with Sketch.</desc>
    <defs>
        <polygon id="path-1" points="0.0736 0.3303 25.319 0.3303 25.319 21.9213 0.0736 21.9213"></polygon>
        <polygon id="path-3" points="0 0.51775312 12.5010414 0.51775312 12.5010414 12.4268 0 12.4268"></polygon>
        <polygon id="path-5" points="0.036831457 0.0244 18.2123 0.0244 18.2123 16 0.036831457 16"></polygon>
    </defs>
    <g id="Page-1" stroke="none" stroke-width="1" fill="none" fill-rule="evenodd">
        <g id="Group-36">
            <g id="Group-3" transform="translate(83.000000, 25.882000)">
                <mask id="mask-2" fill="white">
                    <use xlink:href="#path-1"></use>
                </mask>
                <g id="Clip-2"></g>
                <path d="M25.3196,8.9153 L24.7506,6.7263 C24.7506,6.7263 19.0646,8.2033 14.4486,9.4063 L19.9316,2.2273 L18.1336,0.8533 L13.5706,6.8303 L13.5706,0.3303 L11.4066,0.3303 L11.3636,9.7183 L3.4656,3.4773 L2.0626,5.2503 L9.0886,10.8033 C4.5806,11.9813 0.0736,13.2143 0.0736,13.2143 L0.7826,15.3553 C0.7826,15.3553 4.5266,14.3343 8.6646,13.2533 L5.1616,17.8403 L6.9576,19.2133 L11.4066,13.3903 L11.4066,21.9213 L13.5706,21.9213 L13.5706,14.3453 L19.8746,19.3283 L21.2766,17.5543 L14.0556,11.8463 C17.7026,10.8953 25.3196,8.9153 25.3196,8.9153" id="Fill-1" fill="#FFFFFF" mask="url(#mask-2)"></path>
            </g>
            <path d="M14.5066,12.3901 L13.7396,12.8121 C13.7396,12.8121 14.8076,14.2701 15.6756,15.4541 L12.4946,14.7271 L12.1446,15.4061 L14.7926,16.0101 L12.3616,16.7771 L12.5576,17.3981 L16.0716,16.3031 L14.4546,19.3071 L15.2446,19.5011 L16.6836,16.8281 C17.5326,17.9831 18.4026,19.1321 18.4026,19.1321 L19.1386,18.6761 C19.1386,18.6761 18.4176,17.7211 17.6376,16.6611 L19.6706,17.1251 L20.0206,16.4481 L17.4406,15.8571 L20.6306,14.8501 L20.4346,14.2291 L17.6016,15.1231 L18.8936,12.7241 L18.1026,12.5321 L16.6236,15.2791 C15.9376,14.3431 14.5066,12.3901 14.5066,12.3901" id="Fill-4" fill="#FFFFFF"></path>
            <path d="M53.553,11.3295 L53.473,9.7865 C53.473,9.7865 45.817,10.1835 42.086,10.3755 L42.245,9.6755 L49.712,2.4135 L48.636,1.3065 L42.87,6.9135 L44.357,0.3415 L42.85,0.0005 L40.839,8.8885 L40.488,9.2285 C34.702,2.1995 34.227,2.0385 34.227,2.0385 L33.534,3.3955 C33.534,3.3955 36.262,6.5255 39.377,10.3085 L39.155,10.5255 C34.225,10.7775 29.901,10.9775 29.901,10.9775 L29.904,12.5205 C29.904,12.5205 33.483,12.3615 37.475,12.1575 L32.232,17.2575 L33.309,18.3635 L39.814,12.0385 C39.919,12.0325 40.024,12.0275 40.129,12.0225 L38.177,20.6535 L39.684,20.9955 L41.513,12.9105 C43.086,14.8305 46.52,19.0535 46.52,19.0535 L47.69,18.0445 C47.69,18.0445 45.119,14.8785 42.674,11.8915 C46.911,11.6735 53.553,11.3295 53.553,11.3295" id="Fill-6" fill="#FFFFFF"></path>
            <path d="M78.74,11.3657 L76.659,15.0227 L80.721,13.7947 L80.983,14.4567 L76.147,15.9177 L75.995,16.1827 L81.019,17.5137 L80.869,18.1747 L76.097,16.9107 L78.149,21.0197 L77.491,21.2707 L75.438,17.1567 L73.339,20.8357 L72.689,20.4697 L74.9,16.5937 L74.372,16.4537 L68.81,18.1357 L68.548,17.4737 L73.068,16.1077 L69.064,15.0477 L69.213,14.3867 L74.302,15.7357 L74.678,15.6217 L72.391,10.6197 L73.132,10.7767 C73.318,11.2587 75.357,15.4157 75.357,15.4157 L75.62,15.3367 L78.074,11.0307 L78.74,11.3657 Z" id="Fill-8" fill="#FFFFFF"></path>
            <path d="M82.9846,78.5219 L82.0256,83.6029 L84.6296,83.6029 M73.6646,78.5219 L73.0246,83.6029 L70.8316,83.6029" id="Fill-10" fill="#FFFFFF"></path>
            <path d="M73.9802,72.3149 C73.2622,73.7119 69.7922,80.5269 70.2832,80.6649 C70.8312,80.8189 75.3272,80.0649 75.7652,79.7509 C76.2032,79.4369 79.7592,74.1739 80.1202,74.2689 C80.4802,74.3629 80.0442,79.1499 80.1202,79.6599 C80.1952,80.1689 85.6342,79.3849 85.9082,78.2889 C86.1292,77.4059 84.9292,72.7359 84.4532,70.9489 L74.0382,72.3109 C74.0192,72.3139 74.0002,72.3139 73.9802,72.3149" id="Fill-12" fill="#FFFFFF"></path>
            <path d="M84.6428,70.3061 C84.6978,70.2271 84.7158,70.1321 84.6948,70.0391 C83.7018,65.6771 84.0258,65.4641 84.2198,65.3371 C84.2808,65.2961 84.4438,65.2211 84.6478,65.3721 C86.0408,66.5951 92.8308,68.3451 93.8148,68.5401 C94.1508,68.4661 95.0098,66.4261 94.8078,65.3301 C94.7318,64.9181 94.5448,64.8941 94.3538,64.9211 L94.3318,64.9231 C88.7108,65.3051 85.9098,61.8991 84.9728,60.4381 C83.9518,61.5351 82.5478,62.1591 81.0698,62.1591 C78.6998,62.1591 76.6028,60.5711 75.9368,58.2851 C74.3438,57.3441 69.4758,54.4551 67.6848,53.2301 C67.6258,53.1901 67.5578,53.1681 67.4878,53.1681 C67.4598,53.1681 67.4318,53.1721 67.4048,53.1791 C67.3098,53.2021 67.2338,53.2641 67.1888,53.3501 C66.7058,54.2931 66.0978,55.2371 65.7778,55.7151 C65.6898,55.8481 65.7058,56.0301 65.8148,56.1461 C69.2398,59.7401 71.9118,60.5481 73.3468,60.9831 C74.1028,61.2111 74.6018,61.3631 74.7608,61.7911 C75.0648,62.6211 74.1608,68.1801 73.5938,71.4201 C73.5748,71.5281 73.6068,71.6341 73.6818,71.7121 C73.7578,71.7911 73.8618,71.8271 73.9748,71.8151 L79.5198,71.0891 L84.2638,70.2471 C84.2638,70.2471 84.2878,70.3331 84.3218,70.4601 L84.4068,70.4501 C84.5038,70.4371 84.5868,70.3861 84.6428,70.3061" id="Fill-14" fill="#FFFFFF"></path>
            <path d="M79.5203,71.0893 L84.3213,70.4603 C84.2873,70.3333 84.2633,70.2473 84.2633,70.2473 L79.5203,71.0893 Z" id="Fill-16" fill="#FFFFFF"></path>
            <path d="M65.3616,55.4389 C65.6756,54.9679 66.2716,54.0429 66.7446,53.1219 C66.8546,52.9089 67.0506,52.7529 67.2816,52.6949 C67.5166,52.6339 67.7676,52.6799 67.9676,52.8179 C69.1266,53.6109 71.5916,55.1109 73.6106,56.3189 C74.8606,52.6289 75.6116,48.6099 75.6116,44.3089 C75.6116,31.6409 72.5406,22.5289 64.0956,22.5289 C56.0346,22.5289 54.1326,37.0169 49.5276,37.1459 C44.9226,37.2749 43.1816,23.1149 35.1236,23.3409 C27.0656,23.5669 22.2676,32.5319 22.7096,48.2749 C23.1506,64.0179 43.6216,83.3369 51.4706,80.8699 C56.9066,79.1599 66.3876,71.9169 71.7066,60.9529 C70.1536,60.3389 68.0056,59.1689 65.4526,56.4909 C65.1836,56.2069 65.1456,55.7639 65.3616,55.4389" id="Fill-18" fill="#FFFFFF"></path>
            <path d="M81.1155,52.0961 C78.4575,52.0961 76.2945,54.2581 76.2945,56.9151 C76.2945,57.5101 76.4165,58.0741 76.6145,58.6001 C77.3015,60.4271 79.0525,61.7371 81.1155,61.7371 C82.6245,61.7371 83.9565,61.0261 84.8415,59.9371 C85.5145,59.1071 85.9355,58.0651 85.9355,56.9151 C85.9355,54.2581 83.7735,52.0961 81.1155,52.0961" id="Fill-20" fill="#FFFFFF"></path>
            <g id="Group-24" transform="translate(0.000000, 26.882000)">
                <mask id="mask-4" fill="white">
                    <use xlink:href="#path-3"></use>
                </mask>
                <g id="Clip-23"></g>
                <path d="M6.136,0.51775312 C7.128,0.5148 8.016,0.6558 8.798,0.9368 C9.581,1.2188 10.245,1.6128 10.792,2.1158 C11.339,2.6178 11.76,3.2028 12.055,3.8698 C12.35,4.5358 12.499,5.2498 12.5010414,6.0158 C12.504,6.8778 12.344,7.6278 12.02,8.2628 C11.696,8.8998 11.169,9.4068 10.438,9.7828 L10.438,9.8798 L12.221,9.8738 L12.228,12.3888 L0.314,12.4268 L0.306,9.9128 L2.088,9.9068 L2.088,9.8088 C1.354,9.4358 0.823,8.9058 0.496,8.2148 C0.168,7.5238 0.003,6.7398 -2.23880597e-05,5.8598 C-0.002,5.1128 0.13,4.4118 0.396,3.7588 C0.663,3.1068 1.055,2.5448 1.575,2.0718 C2.094,1.5968 2.736,1.2208 3.501,0.9418 C4.264,0.6628 5.143,0.5208 6.136,0.51775312 M6.144,3.25276341 C4.826,3.2568 3.826,3.5698 3.144,4.1898 C2.463,4.8098 2.123,5.5848 2.12598032,6.5118 C2.129,7.4238 2.474,8.1878 3.159,8.8038 C3.845,9.4208 4.814,9.7438 6.067,9.7718 L6.263,9.7708 C7.581,9.7668 8.597,9.4548 9.312,8.8338 C10.026,8.2128 10.381,7.4298 10.3790084,6.4868 C10.377,6.0138 10.278,5.5838 10.081,5.1948 C9.885,4.8028 9.603,4.4628 9.236,4.1708 C8.869,3.8788 8.424,3.6518 7.903,3.4918 C7.382,3.3308 6.795,3.2508 6.144,3.25276341" id="Fill-22" fill="#FFFFFF" mask="url(#mask-4)"></path>
            </g>
            <path d="M11.9461,40.5766 L12.4491,43.0656 L10.7501,43.4096 L10.7691,43.5046 C11.5071,43.7046 12.1001,44.0736 12.5501,44.6146 C12.9991,45.1546 13.3071,45.8316 13.4711,46.6446 C13.6361,47.4586 13.6091,48.2316 13.3921,48.9656 C13.1751,49.6976 12.6771,50.3176 11.8991,50.8236 C12.8291,51.0676 13.5371,51.4886 14.0231,52.0876 C14.5091,52.6876 14.8401,53.4176 15.0141,54.2796 C15.1301,54.8536 15.1551,55.4096 15.0891,55.9456 C15.0231,56.4816 14.8411,56.9756 14.5421,57.4256 C14.2421,57.8766 13.8161,58.2706 13.2611,58.6066 C12.7061,58.9426 11.9901,59.1996 11.1131,59.3766 L3.8851,60.8376 L3.3631,58.2526 L10.2791,56.8556 C11.3641,56.6366 12.0871,56.2906 12.4481,55.8186 C12.8101,55.3476 12.9161,54.7446 12.7681,54.0106 C12.6101,53.2286 12.1481,52.6286 11.3831,52.2106 C10.6171,51.7926 9.6521,51.7016 8.4881,51.9366 L2.3381,53.1796 L1.8151,50.5956 L8.7311,49.1976 C9.8161,48.9776 10.5381,48.6246 10.8961,48.1366 C11.2541,47.6496 11.3621,47.0546 11.2201,46.3526 C11.0621,45.5706 10.6001,44.9716 9.8351,44.5536 C9.0691,44.1346 8.0971,44.0446 6.9161,44.2836 L0.7901,45.5216 L0.2671,42.9366 L11.9461,40.5766 Z" id="Fill-25" fill="#FFFFFF"></path>
            <path d="M10.4783,61.3481 C11.3603,60.8921 12.2143,60.6111 13.0383,60.5051 C13.8633,60.4011 14.6343,60.4471 15.3503,60.6451 C16.0663,60.8421 16.7073,61.1701 17.2743,61.6291 C17.8403,62.0871 18.2993,62.6571 18.6503,63.3361 C19.0463,64.1031 19.2453,64.8431 19.2473,65.5571 C19.2493,66.2701 19.0113,66.9601 18.5323,67.6291 L18.5773,67.7161 L20.1603,66.8991 L21.3143,69.1321 L10.7283,74.6011 L9.5743,72.3671 L11.1583,71.5481 L11.1133,71.4611 C10.2903,71.4641 9.5763,71.2351 8.9693,70.7691 C8.3623,70.3031 7.8573,69.6811 7.4543,68.9001 C7.1103,68.2351 6.9093,67.5501 6.8483,66.8501 C6.7883,66.1481 6.8813,65.4671 7.1283,64.8101 C7.3733,64.1511 7.7733,63.5231 8.3263,62.9261 C8.8783,62.3291 9.5963,61.8021 10.4783,61.3481 M11.7333,63.7771 C10.5613,64.3811 9.8143,65.1161 9.4913,65.9801 C9.1673,66.8421 9.2183,67.6871 9.6443,68.5101 C10.0623,69.3211 10.7173,69.8431 11.6083,70.0791 C12.4993,70.3151 13.5093,70.1601 14.6383,69.6141 L14.8113,69.5241 C15.9823,68.9191 16.7443,68.1761 17.0973,67.2981 C17.4493,66.4201 17.4093,65.5621 16.9763,64.7241 C16.7593,64.3031 16.4743,63.9651 16.1223,63.7081 C15.7693,63.4511 15.3633,63.2761 14.9033,63.1841 C14.4433,63.0911 13.9443,63.0921 13.4073,63.1871 C12.8693,63.2821 12.3113,63.4791 11.7333,63.7771" id="Fill-27" fill="#FFFFFF"></path>
            <path d="M10.2571,82.9897 L8.6081,80.9317 L22.0961,70.1217 L23.6841,72.1017 L22.2931,73.2167 L22.3541,73.2937 C23.1601,73.1277 23.9061,73.2127 24.5931,73.5487 C25.2791,73.8847 25.8971,74.3947 26.4471,75.0817 C26.9151,75.6657 27.2481,76.2957 27.4461,76.9707 C27.6441,77.6467 27.6871,78.3327 27.5761,79.0267 C27.4641,79.7207 27.1971,80.4157 26.7731,81.1097 C26.3491,81.8027 25.7501,82.4617 24.9751,83.0827 C24.2001,83.7037 23.4191,84.1457 22.6321,84.4137 C21.8441,84.6787 21.0791,84.7867 20.3381,84.7347 C19.5971,84.6807 18.9041,84.4867 18.2581,84.1487 C17.6121,83.8107 17.0501,83.3437 16.5711,82.7467 C16.0321,82.0747 15.6911,81.3867 15.5471,80.6877 C15.4041,79.9907 15.5011,79.2647 15.8391,78.5147 L15.7781,78.4387 C15.1991,78.9657 14.6231,79.4647 14.0501,79.9327 C13.4771,80.4027 13.0321,80.7647 12.7151,81.0187 L10.2571,82.9897 Z M23.2501,80.9287 C24.2791,80.1047 24.8691,79.2407 25.0201,78.3377 C25.1721,77.4327 24.9531,76.6127 24.3621,75.8767 C24.0771,75.5197 23.7431,75.2477 23.3591,75.0527 C22.9741,74.8617 22.5611,74.7557 22.1171,74.7347 C21.6741,74.7147 21.2081,74.7917 20.7201,74.9637 C20.2321,75.1347 19.7411,75.4087 19.2491,75.7817 L19.0971,75.9047 C18.5881,76.3107 18.1851,76.7397 17.8871,77.1867 C17.5891,77.6347 17.3951,78.0817 17.3051,78.5297 C17.2151,78.9757 17.2221,79.4147 17.3251,79.8427 C17.4281,80.2707 17.6281,80.6697 17.9231,81.0377 C18.5141,81.7737 19.2921,82.1457 20.2581,82.1547 C21.2231,82.1627 22.2211,81.7547 23.2501,80.9287 L23.2501,80.9287 Z" id="Fill-29" fill="#FFFFFF"></path>
            <path d="M26.0369,84.2748 C26.6809,83.5858 27.3739,83.0568 28.1149,82.6908 C28.8569,82.3258 29.6069,82.1248 30.3659,82.0868 C31.1239,82.0478 31.8679,82.1648 32.5979,82.4318 C33.3269,82.6998 34.0069,83.1288 34.6379,83.7168 C35.2439,84.2838 35.7089,84.8948 36.0309,85.5518 C36.3529,86.2098 36.5239,86.8848 36.5419,87.5818 C36.5599,88.2768 36.4239,88.9788 36.1319,89.6858 C35.8389,90.3928 35.3769,91.0858 34.7439,91.7628 L34.1449,92.4058 L27.7349,86.4268 C26.9829,87.3288 26.5969,88.2198 26.5759,89.1018 C26.5549,89.9838 26.8949,90.7528 27.5979,91.4068 C28.2159,91.9838 28.8169,92.2828 29.3989,92.3028 C29.9809,92.3228 30.4869,92.1988 30.9149,91.9308 L32.7899,93.6788 C32.3629,94.0168 31.8849,94.2668 31.3559,94.4288 C30.8259,94.5908 30.2719,94.6478 29.6949,94.5988 C29.1169,94.5498 28.5269,94.3888 27.9249,94.1158 C27.3219,93.8428 26.7349,93.4408 26.1639,92.9078 C24.7589,91.5978 24.0509,90.1908 24.0389,88.6888 C24.0269,87.1868 24.6929,85.7148 26.0369,84.2748 M33.2219,85.2348 C32.6499,84.7018 31.9929,84.4338 31.2499,84.4307748 C30.5069,84.4278 29.7649,84.6928 29.0239,85.2248 L33.3799,89.2898 C33.9749,88.5078 34.2519,87.7818 34.2109,87.1088 C34.1709,86.4368 33.8409,85.8118 33.2219,85.2348" id="Fill-31" fill="#FFFFFF"></path>
            <g id="Group-35" transform="translate(34.000000, 88.882000)">
                <mask id="mask-6" fill="white">
                    <use xlink:href="#path-5"></use>
                </mask>
                <g id="Clip-34"></g>
                <path d="M1.5213,4.2454 C2.1083,3.4434 2.7473,2.8124 3.4393,2.3504 C4.1303,1.8894 4.8403,1.5884 5.5703,1.4454 C6.2993,1.3044 7.0193,1.3114 7.7313,1.4714 C8.4423,1.6294 9.1073,1.9334 9.7243,2.3864 C10.4203,2.8954 10.9273,3.4704 11.2473,4.1074 C11.5663,4.7464 11.6613,5.4704 11.5303,6.2834 L11.6093,6.3404 C12.0183,5.6724 12.4383,5.0374 12.8703,4.4334 C13.3013,3.8324 13.6363,3.3674 13.8773,3.0384 L16.0853,0.0244 L18.2123,1.5844 L7.6483,16.0004 L5.6203,14.5134 L6.6733,13.0764 L6.5953,13.0174 C5.8603,13.3874 5.1173,13.4994 4.3663,13.3524 C3.6163,13.2064 2.8863,12.8734 2.1783,12.3534 C1.5743,11.9114 1.0883,11.3894 0.7223,10.7884 C0.3563,10.1864 0.1363,9.5364 0.0633,8.8374 C-0.0097,8.1384 0.0683,7.3974 0.2973,6.6184 C0.5263,5.8374 0.9343,5.0464 1.5213,4.2454 M3.7273,5.8614 C2.9483,6.9254 2.6053,7.9154 2.7003,8.8324 C2.7953,9.7494 3.2163,10.4814 3.9653,11.0294 C4.7263,11.5884 5.5683,11.7614 6.4903,11.5494 C7.4133,11.3374 8.2633,10.6994 9.0433,9.6364 C9.8223,8.5714 10.1733,7.5684 10.0983,6.6264 C10.0223,5.6824 9.6043,4.9324 8.8433,4.3744 C8.4623,4.0954 8.0563,3.9194 7.6263,3.8464 C7.1953,3.7714 6.7533,3.7974 6.3013,3.9194 C5.8483,4.0414 5.4023,4.2644 4.9633,4.5884 C4.5233,4.9124 4.1113,5.3364 3.7273,5.8614" id="Fill-33" fill="#FFFFFF" mask="url(#mask-6)"></path>
            </g>
        </g>
    </g>
</svg>