<?xml version="1.0" encoding="UTF-8"?>
<svg width="237px" height="58px" viewBox="0 0 237 58" version="1.1" xmlns="http://www.w3.org/2000/svg" xmlns:xlink="http://www.w3.org/1999/xlink">
    <!-- Generator: Sketch 57.1 (83088) - https://sketch.com -->
    <g id="Page-1" stroke="none" stroke-width="1" fill="none" fill-rule="evenodd">
        <g id="NUNC-" transform="translate(-46.000000, -155.000000)" fill="#FFFFFF">
            <path d="M52.3895521,213 L52.3895521,162.35093 L55.8960396,162.35093 L74.4415234,213 L88,213 L88,156 L81.5324731,156 L81.5324731,206.64907 L78.7272581,206.64907 L60.1817743,156 L46,156 L46,213 L52.3895521,213 Z M144,193.190891 L144,156 L136.913397,156 L136.913397,195.070023 C136.913397,199.090123 135.889841,202.026156 133.842603,203.878375 C131.795365,205.731852 128.514118,206.657961 124,206.657961 C119.484744,206.657961 116.204762,205.745308 114.157524,203.917613 C112.110286,202.091049 111.086603,199.141433 111.086603,195.070023 L111.086603,156 L104,156 L104,193.190891 C104,199.194128 105.823379,203.995837 109.472413,207.597527 C113.120309,211.199092 117.96288,213 124,213 C130.035982,213 134.878553,211.199092 138.527587,207.597527 C142.175483,203.995837 144,199.194128 144,193.190891 L144,193.190891 Z M158,212 L167,212 L167,203 L158,203 L158,212 Z M158,181 L167,181 L167,172 L158,172 L158,181 Z M186.389658,213 L186.389658,162.35093 L189.896135,162.35093 L208.441564,213 L222,213 L222,156 L215.532367,156 L215.532367,206.64907 L212.727161,206.64907 L194.181857,156 L180,156 L180,213 L186.389658,213 Z M275.268187,206.634143 C279.536766,202.390281 282.113995,197.020285 283,190.523018 L274.799656,190.523018 C274.69466,195.762867 273.354802,199.757417 270.777573,202.508057 C268.200344,205.258823 264.724941,206.634143 260.351492,206.634143 C255.35321,206.634143 251.538484,205.128676 248.909948,202.115217 C246.280284,199.102894 244.966016,194.636733 244.966016,188.715473 L244.966016,179.363171 C244.966016,173.443047 246.280284,168.963379 248.909948,165.924168 C251.538484,162.886093 255.35321,161.365857 260.351492,161.365857 C264.724941,161.365857 268.200344,162.741177 270.777573,165.491943 C273.354802,168.242583 274.69466,172.238395 274.799656,177.476982 L283,177.476982 C282.113995,170.980978 279.536766,165.609719 275.268187,161.365857 C270.998478,157.121994 266.025787,155 260.351492,155 C253.686196,155 248.129065,157.790025 243.677464,163.369948 C239.225863,168.949872 237,175.826598 237,184 C237,192.173402 239.225863,199.050128 243.677464,204.630052 C248.129065,210.209975 253.686196,213 260.351492,213 C266.025787,213 270.998478,210.878006 275.268187,206.634143 L275.268187,206.634143 Z" id="Fill-1-Copy" style="mix-blend-mode: exclusion;"></path>
        </g>
    </g>
</svg>