<?xml version="1.0" encoding="UTF-8"?>
<svg width="222px" height="204px" viewBox="0 0 222 204" version="1.1" xmlns="http://www.w3.org/2000/svg" xmlns:xlink="http://www.w3.org/1999/xlink">
    <!-- Generator: Sketch 55 (78076) - https://sketchapp.com -->
    <title>Group 8</title>
    <desc>Created with Sketch.</desc>
    <g id="Symbols" stroke="none" stroke-width="1" fill="none" fill-rule="evenodd">
        <g id="Group-8" transform="translate(0.000047, 0.000800)">
            <g id="Group-6" transform="translate(21.706053, 0.000000)">
                <path d="M199.6936,72.2526 L198.5126,67.7046 C198.5126,67.7046 186.7066,70.7736 177.1216,73.2716 L188.5056,58.3636 L184.7736,55.5136 L175.2976,67.9226 L175.2976,54.4266 L170.8046,54.4266 L170.7166,73.9206 L154.3176,60.9596 L151.4046,64.6436 L165.9926,76.1736 C156.6326,78.6176 147.2746,81.1796 147.2746,81.1796 L148.7466,85.6236 C148.7466,85.6236 156.5206,83.5036 165.1116,81.2596 L157.8386,90.7826 L161.5686,93.6346 L170.8046,81.5406 L170.8046,99.2576 L175.2976,99.2576 L175.2976,83.5266 L188.3886,93.8736 L191.2986,90.1896 L176.3056,78.3386 C183.8786,76.3636 199.6936,72.2526 199.6936,72.2526" id="Fill-1" fill="#A3C238"></path>
                <path d="M4.905,25.7272 L3.312,26.6032 C3.312,26.6032 5.53,29.6302 7.332,32.0872 L0.727,30.5792 L-5.32907052e-14,31.9872 L5.498,33.2432 L0.452,34.8352 L0.859,36.1252 L8.155,33.8512 L4.796,40.0882 L6.437,40.4912 L9.426,34.9412 C11.189,37.3392 12.994,39.7242 12.994,39.7242 L14.523,38.7782 C14.523,38.7782 13.025,36.7952 11.407,34.5932 L15.627,35.5592 L16.355,34.1502 L10.997,32.9252 L17.62,30.8342 L17.213,29.5442 L11.332,31.4022 L14.014,26.4202 L12.372,26.0202 L9.301,31.7242 C7.876,29.7832 4.905,25.7272 4.905,25.7272" id="Fill-3" fill="#F8BE92"></path>
                <path d="M85.9797,23.524 L85.8137,20.32 C85.8137,20.32 69.9167,21.144 62.1707,21.543 L62.5007,20.088 L78.0047,5.01 L75.7697,2.712 L63.7977,14.353 L66.8857,0.708 L63.7567,1.42108547e-14 L59.5817,18.455 L58.8517,19.164 C46.8387,4.568 45.8517,4.232 45.8517,4.232 L44.4137,7.051 C44.4137,7.051 50.0767,13.551 56.5457,21.406 L56.0837,21.856 C45.8477,22.379 36.8697,22.795 36.8697,22.795 L36.8757,25.998 C36.8757,25.998 44.3077,25.669 52.5967,25.246 L41.7107,35.832 L43.9467,38.13 L57.4527,24.997 C57.6697,24.986 57.8897,24.974 58.1077,24.963 L54.0527,42.884 L57.1817,43.592 L60.9797,26.805 C64.2457,30.794 71.3757,39.56 71.3757,39.56 L73.8067,37.465 C73.8067,37.465 68.4687,30.892 63.3907,24.692 C72.1887,24.239 85.9797,23.524 85.9797,23.524" id="Fill-5" fill="#FCC417"></path>
                <path d="M138.2776,23.5992 L133.9576,31.1922 L142.3906,28.6432 L142.9336,30.0162 L132.8926,33.0512 L132.5776,33.6032 L143.0076,36.3662 L142.6986,37.7372 L132.7906,35.1132 L137.0496,43.6462 L135.6826,44.1662 L131.4216,35.6222 L127.0626,43.2632 L125.7136,42.5042 L130.3036,34.4542 L129.2086,34.1632 L117.6586,37.6562 L117.1146,36.2842 L126.4996,33.4462 L118.1856,31.2452 L118.4966,29.8722 L129.0616,32.6722 L129.8416,32.4362 L125.0946,22.0502 L126.6326,22.3752 C127.0196,23.3752 131.2536,32.0092 131.2536,32.0092 L131.7986,31.8452 L136.8936,22.9032 L138.2776,23.5992 Z" id="Fill-7" fill="#23AABE"></path>
                <path d="M22.5793,99.567 C21.6623,66.879 31.6233,48.264 48.3553,47.796 C65.0873,47.326 68.7023,76.728 78.2633,76.461 C87.8243,76.192 91.7733,46.109 108.5103,46.109 C126.0453,46.109 132.4223,65.029 132.4223,91.332 C132.4223,133.046 98.5963,162.119 82.2973,167.244 C65.9993,172.368 23.4953,132.256 22.5793,99.567" id="Fill-9" fill="#EC6D6E"></path>
                <polygon id="Fill-23" fill="#4A4A4A" points="151.7864 175.8531 145.6604 175.8531 147.8024 163.8211 148.7864 163.9971 146.8534 174.8531 151.7864 174.8531"></polygon>
                <polygon id="Fill-25" fill="#4A4A4A" points="127.595 175.8531 122.495 175.8531 122.495 174.8531 126.706 174.8531 128.013 163.8501 129.005 163.9671"></polygon>
                <path d="M121.3313,168.5641 C122.4953,168.8901 132.0403,167.2911 132.9703,166.6251 C133.8993,165.9581 141.4493,154.7861 142.2143,154.9861 C142.9783,155.1851 142.0533,165.3471 142.2143,166.4301 C142.3743,167.5131 153.9193,165.8481 154.5013,163.5211 C155.0833,161.1931 151.0103,146.4511 151.0103,146.4511 L129.4713,150.2711 C129.4713,150.2711 120.1673,168.2381 121.3313,168.5641" id="Fill-27" fill="#A3C238"></path>
                <path d="M116.1145,109.8854 C120.3625,112.7934 132.7685,120.1074 134.5085,121.1294 C134.6425,121.2094 134.7905,121.2624 134.9455,121.2864 L151.5975,123.9454 C151.9695,124.0044 152.2995,124.2244 152.4835,124.5524 C153.7335,126.7724 159.4795,135.4714 172.3475,134.6174 C175.8935,134.0604 172.8145,143.6724 171.1835,143.3474 C169.5525,143.0214 154.6595,139.2964 151.5115,136.5294 C150.2065,135.5714 151.7415,142.8104 152.4425,145.8874 C152.6065,146.6074 152.1135,147.3104 151.3815,147.4064 L129.2345,150.3024 C128.3955,150.4114 127.6895,149.6844 127.8355,148.8504 C128.6765,144.0404 130.9735,130.4144 130.3375,128.6854 C129.5785,126.6234 122.3265,128.2814 111.4625,116.8794 C111.0565,116.4544 111.0015,115.7944 111.3265,115.3064 C112.0375,114.2394 113.2885,112.2874 114.2925,110.3364 C114.6375,109.6634 115.4905,109.4584 116.1145,109.8854" id="Fill-29" fill="#23AABE"></path>
                <path d="M133.8996,117.2281 C133.8996,111.5241 138.5246,106.8991 144.2286,106.8991 C149.9336,106.8991 154.5586,111.5241 154.5586,117.2281 C154.5586,122.9331 149.9336,127.5581 144.2286,127.5581 C138.5246,127.5581 133.8996,122.9331 133.8996,117.2281" id="Fill-31" fill="#F8BE92"></path>
            </g>
            <path d="M10.3180531,77.6852 C8.1040531,77.6922 6.4250531,78.2162 5.2800531,79.2582 C4.1350531,80.3002 3.5660531,81.6012 3.5700531,83.1592 C3.5750531,84.6902 4.1530531,85.9722 5.3050531,87.0072 C6.4560531,88.0422 8.0840531,88.5832 10.1890531,88.6322 L10.5170531,88.6312 C12.7310531,88.6242 14.4370531,88.0992 15.6370531,87.0572 C16.8360531,86.0142 17.4330531,84.7002 17.4280531,83.1152 C17.4260531,82.3222 17.2590531,81.5992 16.9290531,80.9442 C16.5990531,80.2892 16.1260531,79.7162 15.5090531,79.2262 C14.8930531,78.7362 14.1470531,78.3562 13.2720531,78.0852 C12.3960531,77.8152 11.4110531,77.6812 10.3180531,77.6852 Z M10.3040531,73.0922 C11.9700531,73.0872 13.4620531,73.3222 14.7750531,73.7962 C16.0890531,74.2702 17.2040531,74.9292 18.1230531,75.7742 C19.0410531,76.6182 19.7480531,77.6002 20.2430531,78.7192 C20.7390531,79.8382 20.9890531,81.0392 20.9930531,82.3252 C20.9980531,83.7732 20.7280531,85.0322 20.1850531,86.0992 C19.6410531,87.1672 18.7560531,88.0172 17.5280531,88.6502 L17.5280531,88.8142 L20.5220531,88.8042 L20.5350531,93.0282 L0.527053098,93.0902 L0.513053098,88.8682 L3.5060531,88.8582 L3.5060531,88.6952 C2.2740531,88.0692 1.3820531,87.1772 0.833053098,86.0172 C0.282053098,84.8572 0.00505309804,83.5392 5.30980382e-05,82.0632 C-0.00394690196,80.8062 0.218053098,79.6292 0.665053098,78.5362 C1.1130531,77.4402 1.7720531,76.4962 2.6450531,75.7002 C3.5170531,74.9042 4.5940531,74.2722 5.8780531,73.8042 C7.1610531,73.3342 8.6360531,73.0982 10.3040531,73.0922 Z M20.0607531,95.2194 L20.9057531,99.3994 L18.0517531,99.9764 L18.0847531,100.1364 C19.3237531,100.4714 20.3197531,101.0924 21.0757531,101.9994 C21.8297531,102.9064 22.3457531,104.0434 22.6227531,105.4094 C22.8977531,106.7774 22.8537531,108.0744 22.4897531,109.3064 C22.1237531,110.5364 21.2887531,111.5774 19.9827531,112.4274 C21.5427531,112.8364 22.7317531,113.5444 23.5487531,114.5504 C24.3657531,115.5574 24.9207531,116.7824 25.2127531,118.2304 C25.4077531,119.1954 25.4497531,120.1274 25.3397531,121.0284 C25.2287531,121.9284 24.9217531,122.7574 24.4197531,123.5144 C23.9167531,124.2714 23.2007531,124.9324 22.2687531,125.4964 C21.3367531,126.0614 20.1337531,126.4924 18.6617531,126.7904 L6.5247531,129.2434 L5.6467531,124.9034 L17.2617531,122.5564 C19.0827531,122.1884 20.2967531,121.6084 20.9047531,120.8164 C21.5107531,120.0244 21.6897531,119.0114 21.4407531,117.7794 C21.1757531,116.4664 20.3997531,115.4584 19.1147531,114.7564 C17.8297531,114.0544 16.2087531,113.9014 14.2537531,114.2964 L3.9257531,116.3834 L3.0477531,112.0434 L14.6627531,109.6964 C16.4837531,109.3274 17.6957531,108.7344 18.2967531,107.9154 C18.8977531,107.0964 19.0807531,106.0984 18.8417531,104.9194 C18.5767531,103.6064 17.8007531,102.5994 16.5157531,101.8974 C15.2297531,101.1954 13.5967531,101.0434 11.6147531,101.4444 L1.3267531,103.5234 L0.448753098,99.1834 L20.0607531,95.2194 Z M19.7033531,134.1793 C17.7363531,135.1963 16.4803531,136.4283 15.9373531,137.8783 C15.3943531,139.3273 15.4803531,140.7443 16.1953531,142.1293 C16.8973531,143.4893 17.9963531,144.3673 19.4943531,144.7633 C20.9903531,145.1583 22.6853531,144.8983 24.5813531,143.9813 L24.8723531,143.8303 C26.8393531,142.8153 28.1193531,141.5693 28.7113531,140.0943 C29.3023531,138.6193 29.2353531,137.1773 28.5073531,135.7693 C28.1433531,135.0653 27.6653531,134.4963 27.0733531,134.0653 C26.4803531,133.6323 25.7983531,133.3383 25.0263531,133.1843 C24.2543531,133.0293 23.4163531,133.0313 22.5143531,133.1893 C21.6113531,133.3483 20.6743531,133.6783 19.7033531,134.1793 Z M17.5963531,130.1003 C19.0773531,129.3343 20.5103531,128.8633 21.8953531,128.6863 C23.2803531,128.5093 24.5743531,128.5873 25.7773531,128.9193 C26.9793531,129.2523 28.0563531,129.8033 29.0083531,130.5743 C29.9593531,131.3433 30.7293531,132.2983 31.3193531,133.4403 C31.9843531,134.7273 32.3183531,135.9703 32.3223531,137.1683 C32.3253531,138.3663 31.9243531,139.5263 31.1203531,140.6503 L31.1963531,140.7953 L33.8553531,139.4213 L35.7933531,143.1733 L18.0163531,152.3563 L16.0783531,148.6043 L18.7373531,147.2303 L18.6623531,147.0843 C17.2813531,147.0903 16.0803531,146.7023 15.0623531,145.9213 C14.0433531,145.1403 13.1953531,144.0943 12.5173531,142.7833 C11.9403531,141.6653 11.6013531,140.5173 11.5003531,139.3393 C11.3993531,138.1603 11.5553531,137.0193 11.9693531,135.9133 C12.3823531,134.8073 13.0533531,133.7533 13.9813531,132.7513 C14.9093531,131.7483 16.1143531,130.8653 17.5963531,130.1003 Z M39.0431531,162.984 C40.7711531,161.599 41.7621531,160.148 42.0161531,158.63 C42.2711531,157.113 41.9021531,155.735 40.9111531,154.499 C40.4321531,153.901 39.8711531,153.441 39.2261531,153.117 C38.5811531,152.794 37.8861531,152.615 37.1411531,152.581 C36.3961531,152.547 35.6141531,152.675 34.7941531,152.964 C33.9751531,153.253 33.1511531,153.712 32.3241531,154.339 L32.0681531,154.545 C31.2151531,155.229 30.5381531,155.947 30.0381531,156.699 C29.5361531,157.45 29.2101531,158.202 29.0601531,158.953 C28.9091531,159.705 28.9201531,160.44 29.0941531,161.159 C29.2671531,161.879 29.6021531,162.547 30.0981531,163.166 C31.0891531,164.402 32.3961531,165.028 34.0191531,165.041 C35.6401531,165.054 37.3151531,164.369 39.0431531,162.984 Z M17.2241531,166.443 L14.4551531,162.988 L37.1051531,144.834 L39.7721531,148.16 L37.4371531,150.032 L37.5391531,150.16 C38.8921531,149.881 40.1441531,150.024 41.2981531,150.588 C42.4511531,151.153 43.4891531,152.011 44.4121531,153.163 C45.1981531,154.144 45.7581531,155.202 46.0901531,156.338 C46.4211531,157.472 46.4941531,158.623 46.3081531,159.789 C46.1201531,160.955 45.6711531,162.12 44.9601531,163.286 C44.2481531,164.452 43.2411531,165.556 41.9401531,166.599 C40.6391531,167.642 39.3271531,168.386 38.0051531,168.835 C36.6821531,169.282 35.3971531,169.461 34.1541531,169.373 C32.9091531,169.285 31.7451531,168.957 30.6601531,168.39 C29.5751531,167.823 28.6311531,167.039 27.8281531,166.036 C26.9211531,164.906 26.3491531,163.754 26.1081531,162.58 C25.8681531,161.407 26.0311531,160.189 26.5981531,158.93 L26.4951531,158.802 C25.5231531,159.686 24.5551531,160.523 23.5941531,161.311 C22.6321531,162.099 21.8851531,162.708 21.3511531,163.135 L17.2241531,166.443 Z M55.7892531,170.2135 C54.8302531,169.3185 53.7262531,168.8685 52.4782531,168.8635 C51.2302531,168.8595 49.9842531,169.3035 48.7392531,170.1975 L56.0552531,177.0225 C57.0532531,175.7105 57.5182531,174.4905 57.4502531,173.3615 C57.3822531,172.2335 56.8282531,171.1835 55.7892531,170.2135 Z M43.7242531,168.6025 C44.8052531,167.4435 45.9682531,166.5575 47.2142531,165.9425 C48.4592531,165.3295 49.7182531,164.9905 50.9932531,164.9265 C52.2672531,164.8625 53.5162531,165.0575 54.7412531,165.5075 C55.9652531,165.9575 57.1072531,166.6775 58.1662531,167.6655 C59.1852531,168.6165 59.9662531,169.6445 60.5072531,170.7465 C61.0482531,171.8495 61.3342531,172.9845 61.3652531,174.1535 C61.3952531,175.3225 61.1662531,176.5015 60.6762531,177.6885 C60.1852531,178.8755 59.4082531,180.0385 58.3462531,181.1775 L57.3392531,182.2565 L46.5762531,172.2165 C45.3132531,173.7305 44.6642531,175.2275 44.6292531,176.7075 C44.5932531,178.1895 45.1642531,179.4795 46.3442531,180.5785 C47.3832531,181.5485 48.3922531,182.0505 49.3702531,182.0835 C50.3472531,182.1175 51.1962531,181.9085 51.9152531,181.4585 L55.0632531,184.3955 C54.3482531,184.9615 53.5452531,185.3815 52.6562531,185.6535 C51.7662531,185.9265 50.8352531,186.0225 49.8662531,185.9395 C48.8962531,185.8575 47.9052531,185.5865 46.8932531,185.1285 C45.8822531,184.6705 44.8962531,183.9945 43.9372531,183.0995 C41.5782531,180.8995 40.3892531,178.5375 40.3692531,176.0145 C40.3492531,173.4915 41.4672531,171.0215 43.7242531,168.6025 Z M63.3547531,186.1822 C62.0457531,187.9672 61.4707531,189.6302 61.6307531,191.1702 C61.7897531,192.7102 62.4977531,193.9412 63.7547531,194.8622 C65.0327531,195.7982 66.4467531,196.0892 67.9957531,195.7332 C69.5437531,195.3772 70.9727531,194.3062 72.2817531,192.5202 C73.5897531,190.7342 74.1807531,189.0492 74.0537531,187.4652 C73.9267531,185.8812 73.2237531,184.6202 71.9457531,183.6842 C71.3057531,183.2152 70.6257531,182.9192 69.9017531,182.7962 C69.1787531,182.6732 68.4377531,182.7142 67.6767531,182.9192 C66.9167531,183.1242 66.1677531,183.4982 65.4307531,184.0432 C64.6917531,184.5872 64.0007531,185.3002 63.3547531,186.1822 Z M59.6507531,183.4672 C60.6357531,182.1222 61.7097531,181.0622 62.8707531,180.2862 C64.0317531,179.5112 65.2247531,179.0052 66.4497531,178.7672 C67.6737531,178.5292 68.8837531,178.5422 70.0797531,178.8092 C71.2737531,179.0742 72.3887531,179.5862 73.4257531,180.3462 C74.5937531,181.2032 75.4467531,182.1662 75.9837531,183.2372 C76.5197531,184.3082 76.6787531,185.5252 76.4587531,186.8892 L76.5907531,186.9862 C77.2777531,185.8632 77.9837531,184.7962 78.7087531,183.7852 C79.4317531,182.7742 79.9957531,181.9932 80.3997531,181.4412 L84.1087531,176.3812 L87.6787531,178.9982 L69.9397531,203.2062 L66.5337531,200.7102 L68.3027531,198.2962 L68.1707531,198.2002 C66.9367531,198.8202 65.6887531,199.0072 64.4287531,198.7622 C63.1687531,198.5162 61.9437531,197.9562 60.7527531,197.0842 C59.7387531,196.3412 58.9237531,195.4642 58.3087531,194.4542 C57.6937531,193.4452 57.3247531,192.3532 57.2027531,191.1782 C57.0797531,190.0042 57.2107531,188.7622 57.5957531,187.4522 C57.9797531,186.1402 58.6647531,184.8132 59.6507531,183.4672 Z" id="Combined-Shape" fill="#4A4A4A"></path>
        </g>
    </g>
</svg>