<?xml version="1.0" encoding="UTF-8"?>
<svg width="152px" height="77px" viewBox="0 0 152 77" version="1.1" xmlns="http://www.w3.org/2000/svg" xmlns:xlink="http://www.w3.org/1999/xlink">
    <!-- Generator: Sketch 54.1 (76490) - https://sketchapp.com -->
    <title>movelogo</title>
    <desc>Created with Sketch.</desc>
    <g id="Page-1" stroke="none" stroke-width="1" fill="none" fill-rule="evenodd">
        <g id="About-–-Desktop-HD-Copy" transform="translate(-304.000000, -2225.000000)" fill="#FFFFFF" fill-rule="nonzero">
            <g id="movelogo" transform="translate(304.000000, 2225.000000)">
                <path d="M70.0003736,77 C66.5546423,77 63.4324678,76.3487499 60.7207174,75.0641433 C57.4554455,73.5444977 54.8800673,71.1767732 53.0698674,68.028816 C51.033626,64.5369675 50,59.9675928 50,54.4517247 C50,48.9679159 51.0334392,44.41513 53.0715487,40.9195537 C54.8916495,37.8004871 57.4662806,35.4504697 60.7244536,33.9338064 C63.4319073,32.6512501 66.5542686,32 70,32 C75.3472819,32 80.151317,33.6622347 83.5264338,36.680091 C87.8236503,40.5717481 90,46.549493 90,54.4515383 C90,62.3282345 87.8247712,68.3210771 83.5335326,72.2652965 C80.1662619,75.3200582 75.3616664,77 70.0003736,77 Z M70.0003736,42.3148765 C63.7808705,42.3148765 60.7573323,46.2876137 60.7573323,54.4593668 C60.7573323,62.6862916 63.7808705,66.6847507 70.0003736,66.6847507 C76.2196899,66.6847507 79.2428545,62.6862916 79.2428545,54.4593668 C79.2426677,46.2878001 76.2196899,42.3148765 70.0003736,42.3148765 Z" id="Shape"></path>
                <path d="M39.9454543,47 L29.0541746,47 L29.0541746,22.6350691 C29.0541746,17.8044242 28.5311155,14.7684834 27.3575262,12.7914456 C26.141261,10.7889143 24.0043079,9.85396867 20.6353181,9.85396867 C18.2931493,9.85396867 16.1619482,10.3098955 14.2996058,11.2090025 C12.6866395,11.9872926 11.5742809,12.9961323 10.8909087,13.7618604 L10.8909087,47 L0,47 L0,1.09991431 L9.45514048,1.09991431 L9.45514048,4.93575926 C10.5242664,3.90401229 11.7288422,3.02190097 13.0517974,2.30309569 C15.9057068,0.75353552 19.1813662,0 23.0661787,0 C26.2050894,0 28.9395061,0.541828801 31.1939108,1.61070758 C33.4258643,2.72207548 35.2071223,4.34848556 36.625078,6.57159085 C38.1862765,4.79683827 39.9564017,3.37936388 41.8974163,2.35149636 C44.9704576,0.789189444 48.4435397,3.28155914e-16 52.2309397,3.28155914e-16 C57.1872903,3.28155914e-16 60.9550222,1.32676933 63.748443,4.05568002 C67.234699,7.52630317 69,13.1466917 69,20.7653625 L69,27.3696515 L67.7492229,27.4197148 C64.9220323,27.5331423 62.2683289,28.0382088 59.8619606,28.9214285 L58.1087202,29.5648618 L58.1087202,22.6348843 C58.1087202,17.9189601 57.5834346,14.8026594 56.4560467,12.8269148 C55.2722523,10.8001832 53.1917057,9.8535992 49.910851,9.8535992 C47.4105956,9.8535992 45.1380072,10.4251704 43.1556154,11.5522408 C41.7025912,12.3563938 40.4098803,13.3960844 39.479544,14.5044965 C39.7973873,16.3134252 39.9456399,18.3130007 39.9456399,20.7648083 L39.9456399,47 L39.9454543,47 Z" id="Path"></path>
                <polygon id="Path" points="107.820013 60 97.1794257 60 77 5 88.3818804 5 102.805772 47.3035546 117.109261 5 128 5"></polygon>
                <path d="M152,55.873146 C152,51.037836 151.039227,46.8802568 149.142525,43.5148186 C147.489336,40.5856616 145.093093,38.3502083 142.018847,36.8712356 C138.80407,35.3246571 135.587965,35 133.456665,35 C128.55494,35 124.093206,36.6795617 120.88867,39.7327868 C116.980907,43.507018 115,48.9656398 115,55.9576534 C115,63.0094723 116.905236,68.4517498 120.662795,72.1316299 C123.914175,75.3161665 128.427684,77 133.716108,77 C136.089213,77 140.671375,76.6237098 144.698808,74.1022314 C148.709362,71.593197 151.073554,67.7275863 151.726713,62.6121945 L151.974018,60.6844968 L142.197119,60.6844968 L141.944883,62.1055215 C141.202968,66.2829738 138.596022,68.313752 133.976499,68.313752 C130.262939,68.313752 125.930357,67.2038261 125.108409,58.6895646 L151.99981,58.6895646 L151.99981,55.873146 L152,55.873146 Z M123.967088,52.1650349 L124.063431,51.5116347 C124.958205,45.4473454 128.176586,42.372947 133.630385,42.372947 C138.912361,42.372947 142.111397,45.5364961 142.879864,51.5218499 L142.961793,52.1650349 L123.967088,52.1650349 L123.967088,52.1650349 Z" id="Shape"></path>
            </g>
        </g>
    </g>
</svg>