<?xml version="1.0" encoding="UTF-8"?>
<svg width="277px" height="68px" viewBox="0 0 277 68" version="1.1" xmlns="http://www.w3.org/2000/svg" xmlns:xlink="http://www.w3.org/1999/xlink">
    <!-- Generator: Sketch 56.3 (81716) - https://sketch.com -->
    <title>Fill 1</title>
    <desc>Created with Sketch.</desc>
    <g id="Movil-320px" stroke="none" stroke-width="1" fill="none" fill-rule="evenodd">
        <path d="M7.60660965,67 L7.60660965,8.35370863 L11.7809995,8.35370863 L33.8589564,67 L50,67 L50,1 L42.3005632,1 L42.3005632,59.6462914 L38.9610215,59.6462914 L16.8830646,1 L0,1 L0,67 L7.60660965,67 Z M115,44.7156086 L115,1 L106.673241,1 L106.673241,46.9244128 C106.673241,51.6497933 105.470563,55.1009205 103.065058,57.2780901 C100.659554,59.456738 96.8040883,60.5453228 91.5,60.5453228 C86.1945743,60.5453228 82.3405951,59.4725553 79.9350903,57.3242116 C77.5295855,55.1771983 76.3267588,51.7101059 76.3267588,46.9244128 L76.3267588,1 L68,1 L68,44.7156086 C68,51.7720447 70.14247,57.4161588 74.4300851,61.6497249 C78.7163626,65.8831431 84.4063838,68 91.5,68 C98.5922787,68 104.2823,65.8831431 108.569915,61.6497249 C112.856192,57.4161588 115,51.7720447 115,44.7156086 L115,44.7156086 Z M131,67 L141,67 L141,57 L131,57 L131,67 Z M131,30 L141,30 L141,20 L131,20 L131,30 Z M164.606736,67 L164.606736,8.35370863 L168.781113,8.35370863 L190.859005,67 L207,67 L207,1 L199.300437,1 L199.300437,59.6462914 L195.960905,59.6462914 L173.883163,1 L157,1 L157,67 L164.606736,67 Z M267.923523,60.5365818 C272.934464,55.5610189 275.959907,49.2651611 277,41.6476764 L267.37351,41.6476764 C267.250254,47.7909477 265.677377,52.4742134 262.651933,55.6991016 C259.62649,58.9241377 255.54667,60.5365818 250.412621,60.5365818 C244.545072,60.5365818 240.066916,58.7715512 236.981244,55.2385301 C233.894246,51.706841 232.35141,46.4706528 232.35141,39.5284854 L232.35141,28.5637177 C232.35141,21.6228823 233.894246,16.3708582 236.981244,12.8076454 C240.066916,9.24576463 244.545072,7.46341824 250.412621,7.46341824 C255.54667,7.46341824 259.62649,9.07586231 262.651933,12.3008984 C265.677377,15.5257866 267.250254,20.2105323 267.37351,26.3523236 L277,26.3523236 C275.959907,18.7363188 272.934464,12.4389811 267.923523,7.46341824 C262.911257,2.48785541 257.07375,0 250.412621,0 C242.588143,0 236.064554,3.27106367 230.838762,9.81304302 C225.61297,16.3550224 223,24.4173907 223,34 C223,43.5826093 225.61297,51.6449776 230.838762,58.186957 C236.064554,64.7289363 242.588143,68 250.412621,68 C257.07375,68 262.911257,65.5121446 267.923523,60.5365818 L267.923523,60.5365818 Z" id="Fill-1" fill="#FFFFFF" style="mix-blend-mode: exclusion;"></path>
    </g>
</svg>