<svg xmlns="http://www.w3.org/2000/svg" viewBox="0 0 315.55 72.51"><defs><style>.cls-1{fill:#fff;}</style></defs><title>Recurso 1</title><g id="Capa_2" data-name="Capa 2"><g id="Capa_6" data-name="Capa 6"><path class="cls-1" d="M223.7,37.59H200.92V1.38a1.2,1.2,0,0,0-1.21-1.2h-3.57a1.2,1.2,0,0,0-1.21,1.2v41a1.2,1.2,0,0,0,1.21,1.2H223.7a1.2,1.2,0,0,0,1.2-1.2V38.79A1.2,1.2,0,0,0,223.7,37.59Z"/><path class="cls-1" d="M121.66,22.94a25.66,25.66,0,0,0-8.32-3.71c-.42-.13-1.21-.32-2.48-.61a31.38,31.38,0,0,1-4.23-1.18c-3.07-1.21-4.57-2.94-4.57-5.27a5.51,5.51,0,0,1,2-4.42A8.44,8.44,0,0,1,109.71,6a11,11,0,0,1,5.53,1.27,8.06,8.06,0,0,1,3.3,3.62,1.2,1.2,0,0,0,1.74.48l3-1.93a1.21,1.21,0,0,0,.41-1.56A13.65,13.65,0,0,0,118.13,2a16.85,16.85,0,0,0-8.42-2,15.61,15.61,0,0,0-7.07,1.54,11.54,11.54,0,0,0-4.86,4.34,12,12,0,0,0-1.7,6.35,9.61,9.61,0,0,0,4.12,8.41,27.42,27.42,0,0,0,9.9,3.91,25,25,0,0,1,7.34,2.6,4.35,4.35,0,0,1,2.09,4.08,5.42,5.42,0,0,1-2.17,4.48,10.19,10.19,0,0,1-6.42,1.82,13.57,13.57,0,0,1-6.3-1.36,8.56,8.56,0,0,1-3.82-3.89,1.2,1.2,0,0,0-1.58-.56L96,33.24a1.25,1.25,0,0,0-.63.69,1.18,1.18,0,0,0,.06.92,14,14,0,0,0,6.17,6.5,19.8,19.8,0,0,0,9.39,2.16A18.07,18.07,0,0,0,118.49,42a12.42,12.42,0,0,0,5.22-4.36,11.47,11.47,0,0,0,1.86-6.41C125.57,27.55,124.26,24.76,121.66,22.94Z"/><path class="cls-1" d="M39.21.12H35.16a1.22,1.22,0,0,0-1.11.73L20.2,33.33,6.3.85A1.22,1.22,0,0,0,5.19.12h-4A1.22,1.22,0,0,0,.2.66,1.19,1.19,0,0,0,.1,1.8l17.77,41a1.19,1.19,0,0,0,1.1.72h2.46a1.2,1.2,0,0,0,1.11-.72l17.77-41A1.2,1.2,0,0,0,39.21.12Z"/><path class="cls-1" d="M64.64.84A1.21,1.21,0,0,0,63.53.12H61.06A1.2,1.2,0,0,0,60,.84l-17.76,41A1.21,1.21,0,0,0,42.29,43a1.24,1.24,0,0,0,1,.53h4a1.19,1.19,0,0,0,1.1-.73L62.3,10.31,76.14,42.78a1.23,1.23,0,0,0,1.12.73h4a1.2,1.2,0,0,0,1.1-1.68Z"/><path class="cls-1" d="M261.48.12H227.59a1.2,1.2,0,0,0-1.21,1.2V5a1.2,1.2,0,0,0,1.21,1.2h13.92V42.31a1.2,1.2,0,0,0,1.21,1.2h3.63a1.2,1.2,0,0,0,1.2-1.2V6.16h13.93A1.21,1.21,0,0,0,262.69,5V1.32A1.21,1.21,0,0,0,261.48.12Z"/><path class="cls-1" d="M312.62,11A21.64,21.64,0,0,0,304.72,3,21.75,21.75,0,0,0,283,3,21.73,21.73,0,0,0,275.07,11a21.58,21.58,0,0,0,0,21.75,22,22,0,0,0,7.9,7.89,20.93,20.93,0,0,0,10.81,2.92,21.2,21.2,0,0,0,10.84-2.91,22.21,22.21,0,0,0,7.94-7.88,21,21,0,0,0,2.95-10.88A21.3,21.3,0,0,0,312.62,11Zm-18.8,26.58A15.23,15.23,0,0,1,286,35.44a16.14,16.14,0,0,1-5.76-5.73,15.23,15.23,0,0,1-2.14-7.87A15.73,15.73,0,0,1,301.71,8.25a15.73,15.73,0,0,1,5.7,5.7,15.45,15.45,0,0,1,2.1,7.89,15.16,15.16,0,0,1-2.13,7.84,16.05,16.05,0,0,1-5.73,5.73A15.14,15.14,0,0,1,293.82,37.53Z"/><path class="cls-1" d="M178.63,41.83,160.86.84a1.18,1.18,0,0,0-1.1-.72H157.3a1.19,1.19,0,0,0-1.1.72l-17.77,41a1.23,1.23,0,0,0,.09,1.15,1.21,1.21,0,0,0,1,.53h4a1.2,1.2,0,0,0,1.1-.73l13.91-32.47,13.84,32.47a1.24,1.24,0,0,0,1.11.73h4.05a1.19,1.19,0,0,0,1-.53A1.23,1.23,0,0,0,178.63,41.83Z"/><path class="cls-1" d="M75.43,69V64.05H73.94V62.26h1.49V58.38h1.89v3.88h3.09v1.79H77.32v4.87a1.6,1.6,0,0,0,1.49,1.58h1.68L81,72.29H78.76A3.32,3.32,0,0,1,75.43,69Z"/><path class="cls-1" d="M93.34,67.73H85.6v0a3.19,3.19,0,0,0,2.92,2.93,3.72,3.72,0,0,0,2.45-1l1.58.94a5.4,5.4,0,0,1-4,1.87,4.51,4.51,0,0,1-3.4-1.54,5.16,5.16,0,0,1-1.35-3.15,2.42,2.42,0,0,1,0-.46,5.37,5.37,0,0,1,.14-1.19,5.22,5.22,0,0,1,1.24-2.43,4.61,4.61,0,0,1,6.82,0,5.15,5.15,0,0,1,1.25,2.43A6.32,6.32,0,0,1,93.34,67.73Zm-2-1.57,0,0a3,3,0,0,0-2.78-2.17,3.09,3.09,0,0,0-2.78,2.17l0,0Z"/><path class="cls-1" d="M106.31,70.36a8.3,8.3,0,0,1-.54.64,5.32,5.32,0,0,1-7.43,0,5.28,5.28,0,0,1,0-7.45,5.32,5.32,0,0,1,7.43,0,4.94,4.94,0,0,1,.52.61l-1.51,1.12a3.38,3.38,0,1,0-2.72,5.39,3.36,3.36,0,0,0,2.72-1.42Z"/><path class="cls-1" d="M119.79,66.9v5.39h-1.88V66.9a3,3,0,1,0-5.92,0v5.39h-1.88V56.21H112v7a5,5,0,0,1,3-1.16,4.82,4.82,0,0,1,3.44,1.4A4.87,4.87,0,0,1,119.79,66.9Z"/><path class="cls-1" d="M139.34,62.26h1.89v10h-1.89V71.13A5.37,5.37,0,0,1,136,72.51,5.24,5.24,0,1,1,136,62a5.37,5.37,0,0,1,3.37,1.38Zm0,5a3.37,3.37,0,1,0-3.37,3.4A3.39,3.39,0,0,0,139.34,67.27Z"/><path class="cls-1" d="M155.7,66.9v5.39h-1.89V66.9a3,3,0,1,0-5.92,0v5.39H146v-10h1.88v1a5,5,0,0,1,3-1.16,4.81,4.81,0,0,1,3.44,1.4A4.88,4.88,0,0,1,155.7,66.9Z"/><path class="cls-1" d="M168.19,56.21h1.88V72.29h-1.88V71.13a5.39,5.39,0,0,1-3.37,1.38,5.24,5.24,0,1,1,0-10.47,5.39,5.39,0,0,1,3.37,1.38Zm0,11.06a3.38,3.38,0,1,0-3.37,3.4A3.39,3.39,0,0,0,168.19,67.27Z"/><path class="cls-1" d="M182.28,69V64.05h-1.49V62.26h1.49V58.38h1.89v3.88h3.09v1.79h-3.09v4.87a1.6,1.6,0,0,0,1.49,1.58h1.69l.48,1.79h-2.21A3.32,3.32,0,0,1,182.28,69Z"/><path class="cls-1" d="M199.16,62.26H201v10h-1.88V71.13a5.39,5.39,0,0,1-3.37,1.38A5.26,5.26,0,0,1,192.06,71a5.3,5.3,0,0,1,0-7.45A5.26,5.26,0,0,1,195.79,62a5.39,5.39,0,0,1,3.37,1.38Zm0,5a3.38,3.38,0,1,0-3.37,3.4A3.39,3.39,0,0,0,199.16,67.27Z"/><path class="cls-1" d="M205.91,72.29V56.21h1.89V72.29Z"/><path class="cls-1" d="M221.56,67.73h-7.73v0a3.17,3.17,0,0,0,2.91,2.93,3.72,3.72,0,0,0,2.45-1l1.58.94a5.55,5.55,0,0,1-1.34,1.12,5.75,5.75,0,0,1-2.65.75,4.47,4.47,0,0,1-3.39-1.54A5.17,5.17,0,0,1,212,67.78a3.62,3.62,0,0,1,0-.46,5.36,5.36,0,0,1,.13-1.19,5.24,5.24,0,0,1,1.25-2.43,4.58,4.58,0,0,1,3.39-1.51,4.64,4.64,0,0,1,3.42,1.51,5,5,0,0,1,1.25,2.43A6.32,6.32,0,0,1,221.56,67.73Zm-2-1.57,0,0a3,3,0,0,0-2.79-2.17A3.09,3.09,0,0,0,214,66.11l0,0Z"/><path class="cls-1" d="M235.15,66.9v5.39h-1.88V66.9a3,3,0,1,0-5.92,0v5.39h-1.89v-10h1.89v1a5,5,0,0,1,3-1.16,4.82,4.82,0,0,1,3.44,1.4A4.87,4.87,0,0,1,235.15,66.9Z"/><path class="cls-1" d="M240.11,69V64.05h-1.49V62.26h1.49V58.38H242v3.88h3.09v1.79H242v4.87a1.6,1.6,0,0,0,1.49,1.58h1.69l.48,1.79h-2.21A3.32,3.32,0,0,1,240.11,69Z"/></g></g></svg>