<?xml version="1.0" encoding="UTF-8"?>
<svg width="508px" height="119px" viewBox="0 0 508 119" version="1.1" xmlns="http://www.w3.org/2000/svg" xmlns:xlink="http://www.w3.org/1999/xlink">
    <!-- Generator: Sketch 58 (84663) - https://sketch.com -->
    <title>blueLogoTailor</title>
    <desc>Created with Sketch.</desc>
    <g id="Page-1" stroke="none" stroke-width="1" fill="none" fill-rule="evenodd">
        <g id="blueLogoTailor" fill="#FFFFFF" fill-rule="nonzero">
            <path d="M119.197694,119 L119.584927,117.713869 C119.733179,117.222937 119.845421,116.719871 119.919313,116.221939 C120.15689,115.297007 120.269132,114.170476 120.269132,112.795679 C120.269132,110.258884 119.671447,108.298421 118.492912,106.966557 C117.341035,105.665493 115.073291,105.006094 111.750947,105.006094 L96.9692245,105.006094 C93.7927935,105.006094 91.0564422,104.606162 88.8364013,103.819363 C86.6112159,103.031165 84.7232224,101.9863 83.226203,100.712303 C81.7455521,99.4541717 80.5291362,98.0695744 79.6139013,96.5977106 C79.0424056,95.6783791 78.5490112,94.7581142 78.1388625,93.8434493 C77.7399379,94.7515809 77.2671211,95.6681124 76.7246211,96.5837106 C75.8519444,98.0560411 74.6533,99.4462383 73.1632957,100.712303 C71.6639379,101.988633 69.7544314,103.033498 67.4890263,103.821696 C65.2325069,104.607095 62.4774487,105.006094 59.3014853,105.006094 L45.4719444,105.006094 C42.1500672,105.006094 39.8823237,105.665493 38.7318495,106.966557 C37.5533151,108.299354 36.9565651,110.259817 36.9565651,112.795679 C36.9565651,113.442011 36.9944465,114.061276 37.0678711,114.639009 C37.1417633,115.194341 37.2502633,115.682007 37.3896297,116.086139 C37.5696836,116.679738 37.6978258,117.25467 37.7824745,117.821202 L37.9489659,118.951467 L25.2250026,115.809406 L25.150175,115.302141 C25.0762827,114.801408 24.961703,114.253076 24.8083064,113.67161 C24.7129013,113.050012 24.6315263,112.392946 24.5492159,111.621081 C24.4678409,110.826349 24.4262181,109.956951 24.4262181,109.03342 C24.4262181,106.457425 24.7802461,104.075563 25.4780133,101.9541 C26.1870047,99.798571 27.3304638,97.9141747 28.8784595,96.3508444 C30.4227138,94.7935808 32.4248194,93.5615832 34.8305263,92.6870516 C37.2137849,91.8227866 40.1521707,91.3841208 43.5652439,91.3841208 L57.8699401,91.3841208 C60.4772138,91.3841208 62.6565672,91.0910547 64.347203,90.5133225 C66.0205349,89.945857 67.386606,89.1613918 68.4103409,88.1795271 C69.4476383,87.1873957 70.2730801,86.019798 70.8646857,84.7089339 C71.481078,83.3486032 72.0296577,81.8300729 72.4963948,80.1930094 L72.6554034,79.6344105 L83.6157741,79.6344105 L83.7738474,80.1930094 C84.2382461,81.8184062 84.7868258,83.3378699 85.4064918,84.7089339 C85.9980974,86.0188647 86.8235392,87.1864624 87.8594336,88.1795271 C88.8855069,89.1613918 90.2525133,89.945857 91.9216362,90.5123892 C93.6146103,91.0910547 95.7939638,91.3841208 98.4012375,91.3841208 L113.658115,91.3841208 C117.07072,91.3841208 120.010041,91.8227866 122.394235,92.6870516 C124.799475,93.5606499 126.800645,94.7935808 128.344899,96.3508444 C129.893362,97.915108 131.037757,99.7990376 131.746748,101.9527 C132.444515,104.077429 132.798544,106.460691 132.798544,109.03342 C132.798544,109.958818 132.776563,110.810016 132.736811,111.580481 C132.693317,112.38268 132.632987,113.038812 132.551612,113.589944 C132.467431,114.229743 132.339289,114.845275 132.170459,115.406674 L132.045591,115.826673 L119.197694,119 Z M26.6107159,114.572742 L35.998772,116.891137 C35.9683732,116.776804 35.9361038,116.663871 35.9019638,116.549538 C35.7354724,116.071206 35.6073301,115.49954 35.5198754,114.832675 C35.436162,114.189609 35.3950069,113.505477 35.3950069,112.795679 C35.3950069,109.880418 36.1203668,107.582089 37.5509767,105.963226 C39.0325629,104.289762 41.6234681,103.474964 45.4719444,103.474964 L59.3014853,103.474964 C62.2983301,103.474964 64.8775435,103.106764 66.9661685,102.378299 C69.0477784,101.655901 70.7884551,100.705769 72.1400284,99.5563715 C73.5000198,98.3999737 74.5878258,97.1409095 75.3739832,95.8141788 C76.1788474,94.4566481 76.8195586,93.1028508 77.2764745,91.7877867 L77.4565284,91.2697877 L78.8132461,91.2697877 L78.9933,91.7877867 C79.4506836,93.1005174 80.1077633,94.4501148 80.947703,95.7997122 C81.7787569,97.1367095 82.8899465,98.3999737 84.2494702,99.5563715 C85.6010435,100.706703 87.322078,101.656834 89.3672095,102.380633 C91.41655,103.106764 93.9747181,103.474964 96.9692245,103.474964 L111.750947,103.474964 C115.600358,103.474964 118.191731,104.289762 119.672382,105.963226 C121.104395,107.580689 121.831158,109.880418 121.831158,112.795679 C121.831158,114.320743 121.705822,115.539207 121.448602,116.522938 C121.432233,116.637271 121.412591,116.757671 121.39061,116.879937 L130.784746,114.560142 C130.87641,114.189609 130.950302,113.795277 131.004552,113.382744 C131.07938,112.872212 131.136436,112.243613 131.177123,111.502081 C131.215472,110.756816 131.236518,109.931284 131.236518,109.03342 C131.236518,106.619824 130.908679,104.394762 130.260018,102.422166 C129.625854,100.495303 128.604457,98.8115729 127.224824,97.4162423 C125.844722,96.0255784 124.036233,94.9163139 121.851735,94.1220488 C119.642451,93.3221837 116.885054,92.9152511 113.658115,92.9152511 L98.4012375,92.9152511 C95.6181189,92.9152511 93.2657267,92.5932518 91.4081319,91.9585864 C89.5215413,91.3187876 87.9595155,90.4143894 86.7683538,89.2738583 C85.5898194,88.1449938 84.6502655,86.8182631 83.9777526,85.3291327 C83.4001771,84.0490685 82.8815284,82.6523379 82.4339659,81.1655409 L73.8362763,81.1655409 C73.3863754,82.6602713 72.8677267,84.0598018 72.293425,85.3291327 C71.6204444,86.8201298 70.6813582,88.1468605 69.5014207,89.2747916 C68.3125974,90.4143894 66.7505715,91.3178543 64.859772,91.9599864 C63.0054508,92.5932518 60.6521232,92.9152511 57.8699401,92.9152511 L43.5652439,92.9152511 C40.3383043,92.9152511 37.5813754,93.3221837 35.3730263,94.1220488 C33.1871254,94.9172472 31.3800392,96.0255784 29.9990026,97.4162423 C28.6203043,98.8101729 27.5989077,100.49437 26.9638086,102.423566 C26.3170176,104.391495 25.9882439,106.616558 25.9882439,109.03342 C25.9882439,109.906084 26.0265931,110.724616 26.1028237,111.466148 C26.1818603,112.212347 26.260897,112.848879 26.3371276,113.371078 C26.4423538,113.75841 26.5358883,114.169543 26.6107159,114.572742 Z M9.05359843,41.2775086 L17.4031261,30.8517914 L62,67.0263023 L58.9906427,78.9055212 L58.5042445,79.0033398 L2.33034899,90.3516747 L0,77.0533973 L44.3559954,69.0019624 L9.05359843,41.2775086 Z M1.82074469,78.3085063 L3.60714446,88.5023062 L57.701316,77.5737187 L60.2265956,67.6049475 L17.6430764,33.0639612 L11.2688455,41.0235476 L48.0554998,69.9158544 L1.82074469,78.3085063 Z M91.3586146,63.812502 L80.4172753,58.4865818 L80.0772902,0.404730456 L93.4086741,0.754340882 L92.7932872,46.043928 L126.364165,16.7927192 L134.880862,27.0893101 L91.3586146,63.812502 Z M81.9515908,57.4819218 L91.1358021,61.9526121 L132.691948,26.8867804 L126.186561,19.0219555 L91.2054598,49.5033796 L91.8466801,2.29657397 L81.6282128,2.02872727 L81.9515908,57.4819218 Z M63.7535007,61.7035827 L19.9285714,25.760373 L28.7815745,15.6687521 L62.3856907,44.3739614 L62.0630852,0.171319098 L75.2857143,0 L74.804137,56.5575274 L63.7535007,61.7035827 Z M22.1471834,25.5788673 L63.9847323,59.8917675 L73.25964,55.5736002 L73.7193062,1.56178194 L63.62623,1.69374394 L63.9637537,47.7563561 L28.9386815,17.8384853 L22.1471834,25.5788673 Z M152.54109,90.3516747 L95.9569117,78.7934661 L93,66.9142472 L137.739359,30.8517914 L146.092135,41.5392767 L110.639363,68.9661415 L155,77.3114914 L152.54109,90.3516747 Z M97.2518078,77.4676338 L151.283787,88.5050617 L153.16069,78.550527 L106.932433,69.8547752 L143.886171,41.2660275 L137.48038,33.0717683 L94.7706197,67.4974848 L97.2518078,77.4676338 Z M461.835184,109.353365 L461.835184,40.1903839 L476.688017,40.1903839 L475.885325,51.992545 L476.153201,51.992545 C477.668824,48.3335687 479.786116,45.2466066 482.508816,42.7287867 C485.229178,40.2138389 488.68538,38.9544502 492.879292,38.9544502 C495.198075,38.9544502 497.293862,39.4350379 499.168055,40.3962133 C501.041314,41.35691 502.624257,42.6593791 503.919223,44.3069716 C505.210916,45.9536066 506.214631,47.875 506.929433,50.069237 C507.641898,52.2668246 508,54.5993981 508,57.0693507 C508,58.077436 507.953718,59.0137204 507.866296,59.8825118 C507.775134,60.753218 507.68631,61.5535592 507.598888,62.2840142 C507.508194,63.1073318 507.417967,63.8397014 507.331012,64.4796872 L493.548279,72.8507204 C493.635701,72.5754834 493.749303,72.0747915 493.883007,71.3414645 C494.016711,70.6100521 494.14948,69.7412607 494.284119,68.7346114 C494.417823,67.7284408 494.529555,66.6303649 494.617911,65.4403839 C494.706268,64.2523175 494.75255,63.1073318 494.75255,62.0097346 C494.75255,59.3569289 494.170985,57.0482891 493.012061,55.0799858 C491.852202,53.1135972 489.935466,52.1299242 487.258581,52.1299242 C483.600888,52.1299242 480.923535,53.8450095 479.229328,57.2747014 C477.53512,60.7058294 476.688017,64.88991 476.688017,69.8322085 L476.688017,109.353365 L461.835184,109.353365 Z M395.264611,65.4403839 C394.595156,68.3689052 394.260896,71.4788436 394.260896,74.7721137 C394.260896,78.0653839 394.595156,81.177237 395.264611,84.1028863 C395.933131,87.0309289 396.958819,89.5927867 398.343076,91.7884597 C399.724061,93.9841327 401.440708,95.699218 403.493018,96.933237 C405.545328,98.1691706 407.997347,98.7857014 410.853284,98.7857014 C413.617591,98.7857014 416.04904,98.1691706 418.146697,96.933237 C420.241082,95.699218 421.980636,93.9841327 423.363959,91.7884597 C424.746346,89.5927867 425.772968,87.0309289 426.442423,84.1028863 C427.111411,81.177237 427.445671,78.0653839 427.445671,74.7721137 C427.445671,71.4788436 427.111411,68.3689052 426.442423,65.4403839 C425.772968,62.5132986 424.746346,59.9509621 423.363959,57.7557678 C421.980636,55.5600948 420.241082,53.8450095 418.146697,52.6090758 C416.04904,51.3750569 413.617591,50.7566114 410.853284,50.7566114 C407.997347,50.7566114 405.545328,51.3750569 403.493018,52.6090758 C401.440708,53.8450095 399.724061,55.5600948 398.343076,57.7557678 C396.958819,59.9509621 395.933131,62.5132986 395.264611,65.4403839 Z M423.633237,108.392668 C419.751145,110.129294 415.490849,111 410.853284,111 C406.21338,111 401.955422,110.129294 398.074733,108.392668 C394.194044,106.656521 390.869209,104.20763 388.105837,101.050303 C385.339192,97.894891 383.175618,94.0746019 381.61605,89.5927867 C380.053676,85.1104929 379.273425,80.1710664 379.273425,74.7721137 C379.273425,69.3745972 380.053676,64.4351706 381.61605,59.9509621 C383.175618,55.4705829 385.339192,51.6493365 388.105837,48.4924882 C390.869209,45.3361185 394.194044,42.8896209 398.074733,41.1510806 C401.955422,39.414455 406.21338,38.5437488 410.853284,38.5437488 C415.490849,38.5437488 419.751145,39.414455 423.633237,41.1510806 C427.512523,42.8896209 430.835021,45.3361185 433.601665,48.4924882 C436.36457,51.6493365 438.506639,55.4705829 440.0246,59.9509621 C441.539289,64.4351706 442.298971,69.3745972 442.298971,74.7721137 C442.298971,80.1710664 441.539289,85.1104929 440.0246,89.5927867 C438.506639,94.0746019 436.36457,97.894891 433.601665,101.050303 C430.835021,104.20763 427.512523,106.656521 423.633237,108.392668 Z M344.752545,109.353365 L344.752545,10 L359.740017,10 L359.740017,109.353365 L344.752545,109.353365 Z M306.482811,29.2110616 L306.482811,13.1563697 L321.737223,13.1563697 L321.737223,29.2110616 L306.482811,29.2110616 Z M306.61745,109.353365 L306.61745,40.1903839 L321.603519,40.1903839 L321.603519,109.353365 L306.61745,109.353365 Z M270.087737,82.86791 L270.087737,73.5371374 C269.104592,75.093782 267.566996,76.3287583 265.471676,77.2420664 C263.373552,78.1582464 260.765389,78.9806066 257.643914,79.712019 C255.858077,80.1710664 254.14143,80.626763 252.491635,81.0838957 C250.840437,81.5429431 249.347253,82.1594739 248.009278,82.9363602 C246.670835,83.7151611 245.600736,84.6519242 244.798044,85.7504787 C243.994885,86.8480758 243.593773,88.2678199 243.593773,90.0044455 C243.593773,92.6591659 244.483887,94.8060142 246.269723,96.453128 C248.053223,98.1002417 250.685228,98.9235592 254.164805,98.9235592 C256.215245,98.9235592 258.199768,98.5592891 260.118373,97.8250047 C262.035577,97.0945498 263.731187,96.0419479 265.203801,94.6695924 C266.67548,93.2977156 267.857311,91.630019 268.749295,89.661237 C269.641278,87.6948483 270.087737,85.4307251 270.087737,82.86791 Z M266.073812,53.5018009 C263.752692,51.6727915 260.898625,50.7566114 257.51021,50.7566114 C252.692191,50.7566114 248.899859,52.2902796 246.136019,55.3542654 C243.369375,58.4206445 241.540528,62.2394976 240.649947,66.8122607 L227.402498,59.1271659 C228.473065,56.2010379 229.944744,53.479782 231.818003,50.9633981 C233.691261,48.4479716 235.943192,46.2757536 238.576133,44.4443507 C241.206268,42.6153412 244.128589,41.1730995 247.34029,40.1209763 C250.551524,39.0712464 253.984819,38.5437488 257.643914,38.5437488 C261.300205,38.5437488 264.735837,39.0243365 267.947071,39.9850332 C271.159239,40.9452512 273.945519,42.4545071 276.310116,44.5123223 C278.672844,46.5701374 280.546102,49.1784265 281.93036,52.3352749 C283.312747,55.4916445 284.003707,59.2195498 284.003707,63.5180332 L284.003707,93.2977156 C284.003707,97.1385877 284.115438,100.227464 284.337499,102.561474 C284.560963,104.894047 284.984982,107.157692 285.609557,109.353365 L274.101663,109.353365 C273.032498,107.523398 272.272816,105.970583 271.827759,104.688218 C271.37943,103.407289 271.0246,101.943986 270.757192,100.295915 L270.35608,100.295915 C269.641278,101.485417 268.681975,102.697417 267.478639,103.933351 C266.274368,105.168327 264.846633,106.313313 263.196838,107.363043 C261.544705,108.415166 259.671914,109.284436 257.577062,109.970853 C255.479873,110.65727 253.094705,111 250.41782,111 C247.384235,111 244.574581,110.540953 241.987923,109.627645 C239.399394,108.714815 237.147463,107.386976 235.229793,105.648436 C233.310719,103.911332 231.818003,101.784109 230.747436,99.2667678 C229.677336,96.7522986 229.142053,93.8941422 229.142053,90.6908626 C229.142053,86.9404597 229.922304,83.8286066 231.483743,81.3576967 C233.042844,78.8882227 235.050741,76.8533839 237.505566,75.2522227 C239.957585,73.6529763 242.65691,72.4170427 245.600736,71.5477725 C248.544562,70.6785024 251.442573,69.9231564 254.298509,69.2831706 C259.203483,68.277 262.973375,67.2478531 265.60538,66.1947725 C268.235983,65.144564 269.552454,63.2916209 269.552454,60.6373791 C269.552454,57.7102938 268.39353,55.3332038 266.073812,53.5018009 Z M207.734451,92.8860569 L214.290622,104.41346 C213.130763,105.785815 211.23413,107.226621 208.603994,108.734919 C205.971521,110.245133 202.783663,111 199.03621,111 C196.538376,111 194.219593,110.678332 192.078459,110.039782 C189.937325,109.398839 188.107544,108.324697 186.592387,106.814962 C185.074426,105.305706 183.870155,103.315863 182.980041,100.843995 C182.086656,98.3745213 181.640664,95.3560095 181.640664,91.7884597 L181.640664,52.4032464 L170,52.4032464 L170,40.1903839 L181.640664,40.1903839 L181.640664,25.2328104 L196.092852,16.313218 L196.092852,40.1903839 L212.551535,40.1903839 L212.551535,52.4032464 L196.092852,52.4032464 L196.092852,90.4151469 C196.092852,93.3451043 196.538376,95.4019621 197.43036,96.5909858 C198.321876,97.7804882 199.659851,98.3745213 201.445687,98.3745213 C203.13896,98.3745213 204.499375,97.7570332 205.526465,96.5220569 C206.55075,95.2861232 207.286589,94.0746019 207.734451,92.8860569 Z" id="Combined-Shape"></path>
        </g>
    </g>
</svg>