<svg xmlns="http://www.w3.org/2000/svg" class="www block fix left top bottom mya z0" viewBox="0 0 9287 262"><title stroke="none" fill="#000000" stroke-width="1px">World wide web</title><path d="M164.8 5l60 224h1.6L281.2 5h23.6l-64 252h-31.6L153.6 44.2H152L95.6 257H64L0 5h24.4l56 222.8H82L140.8 5h24zm402.8 126c0 77.6-50 130.8-123.6 130.8S320.4 208.6 320.4 131C320.4 53.4 370.4.2 444 .2S567.6 53.4 567.6 131zm-26.4 0c0-66.8-38-109.6-97.2-109.6S346.8 64.2 346.8 131s38 109.6 97.2 109.6 97.2-42.8 97.2-109.6zm259.2 126h-27.2c-4.8-6.8-8.4-26-10.4-56.8-1.6-27.6-14.8-49.6-52.4-49.6H632V257h-24.8V5h95.2c63.6 0 94 29.2 94 72.8 0 39.2-27.2 58.8-58 62.4 32 6 46.8 26 49.2 55.6 3.2 36.8 4.4 52 12.8 61.2zM632 129.8h71.2c46.8 0 67.2-18.4 67.2-52 0-31.2-20.4-51.6-67.2-51.6H632v103.6zM842 5h25.2v230.8H1012V257H842V5zm230.8 230.8h62.4c66.4 0 102-39.2 102-104.8s-35.6-104.8-102-104.8h-62.4v209.6zm-25.2 21.2V5h88.8c78 0 127.2 47.2 127.2 126s-49.2 126-127.2 126h-88.8zm472-252l60 224h1.6L1636 5h23.6l-64 252H1564l-55.6-212.8h-1.6L1450.4 257h-31.6l-64-252h24.4l56 222.8h1.6L1495.6 5h24zm171.6 0h25.2v252h-25.2V5zm102 230.8h62.4c66.4 0 102-39.2 102-104.8s-35.6-104.8-102-104.8h-62.4v209.6zM1768 257V5h88.8c78 0 127.2 47.2 127.2 126s-49.2 126-127.2 126H1768zm430-21.2V257h-174.4V5h170.8v21.2H2048v89.6h117.2V137H2048v98.8h150zM2456 5l60 224h1.6l54.8-224h23.6l-64 252h-31.6l-55.6-212.8h-1.6L2386.8 257h-31.6l-64-252h24.4l56 222.8h1.6L2432 5h24zm346 230.8V257h-174.4V5h170.8v21.2H2652v89.6h117.2V137H2652v98.8h150zm232-48c0 43.6-31.2 69.2-90 69.2h-100.4V5h97.2c61.6 0 86 27.2 86 66.4 0 29.6-21.2 50-48.4 54.8 31.6 5.2 55.6 25.6 55.6 61.6zm-88-51.2h-78v99.2h78c41.2 0 63.6-18 63.6-49.2 0-31.6-22.4-50-63.6-50zm-78-110.4v90h76.8c40 0 57.2-16.8 57.2-44.8 0-27.2-17.2-45.2-57.2-45.2H2868zM3291.2 5l60 224h1.6l54.8-224h23.6l-64 252h-31.6L3280 44.2h-1.6L3222 257h-31.6l-64-252h24.4l56 222.8h1.6L3267.2 5h24zM3694 131c0 77.6-50 130.8-123.6 130.8s-123.6-53.2-123.6-130.8c0-77.6 50-130.8 123.6-130.8S3694 53.4 3694 131zm-26.4 0c0-66.8-38-109.6-97.2-109.6s-97.2 42.8-97.2 109.6 38 109.6 97.2 109.6 97.2-42.8 97.2-109.6zm259.2 126h-27.2c-4.8-6.8-8.4-26-10.4-56.8-1.6-27.6-14.8-49.6-52.4-49.6h-78.4V257h-24.8V5h95.2c63.6 0 94 29.2 94 72.8 0 39.2-27.2 58.8-58 62.4 32 6 46.8 26 49.2 55.6 3.2 36.8 4.4 52 12.8 61.2zm-168.4-127.2h71.2c46.8 0 67.2-18.4 67.2-52 0-31.2-20.4-51.6-67.2-51.6h-71.2v103.6zM3968.4 5h25.2v230.8h144.8V257h-170V5zm230.8 230.8h62.4c66.4 0 102-39.2 102-104.8s-35.6-104.8-102-104.8h-62.4v209.6zM4174 257V5h88.8c78 0 127.2 47.2 127.2 126s-49.2 126-127.2 126H4174zM4646 5l60 224h1.6l54.8-224h23.6l-64 252h-31.6l-55.6-212.8h-1.6L4576.8 257h-31.6l-64-252h24.4l56 222.8h1.6L4622 5h24zm171.6 0h25.2v252h-25.2V5zm102 230.8h62.4c66.4 0 102-39.2 102-104.8s-35.6-104.8-102-104.8h-62.4v209.6zm-25.2 21.2V5h88.8c78 0 127.2 47.2 127.2 126s-49.2 126-127.2 126h-88.8zm430-21.2V257H5150V5h170.8v21.2h-146.4v89.6h117.2V137h-117.2v98.8h150zM5582.4 5l60 224h1.6l54.8-224h23.6l-64 252h-31.6l-55.6-212.8h-1.6L5513.2 257h-31.6l-64-252h24.4l56 222.8h1.6L5558.4 5h24zm346 230.8V257H5754V5h170.8v21.2h-146.4v89.6h117.2V137h-117.2v98.8h150zm232-48c0 43.6-31.2 69.2-90 69.2H5970V5h97.2c61.6 0 86 27.2 86 66.4 0 29.6-21.2 50-48.4 54.8 31.6 5.2 55.6 25.6 55.6 61.6zm-88-51.2h-78v99.2h78c41.2 0 63.6-18 63.6-49.2 0-31.6-22.4-50-63.6-50zm-78-110.4v90h76.8c40 0 57.2-16.8 57.2-44.8 0-27.2-17.2-45.2-57.2-45.2h-76.8zM6417.6 5l60 224h1.6L6534 5h23.6l-64 252H6462l-55.6-212.8h-1.6L6348.4 257h-31.6l-64-252h24.4l56 222.8h1.6L6393.6 5h24zm402.8 126c0 77.6-50 130.8-123.6 130.8s-123.6-53.2-123.6-130.8c0-77.6 50-130.8 123.6-130.8s123.6 53.2 123.6 130.8zm-26.4 0c0-66.8-38-109.6-97.2-109.6s-97.2 42.8-97.2 109.6 38 109.6 97.2 109.6S6794 197.8 6794 131zm259.2 126H7026c-4.8-6.8-8.4-26-10.4-56.8-1.6-27.6-14.8-49.6-52.4-49.6h-78.4V257H6860V5h95.2c63.6 0 94 29.2 94 72.8 0 39.2-27.2 58.8-58 62.4 32 6 46.8 26 49.2 55.6 3.2 36.8 4.4 52 12.8 61.2zm-168.4-127.2h71.2c46.8 0 67.2-18.4 67.2-52 0-31.2-20.4-51.6-67.2-51.6h-71.2v103.6zM7094.8 5h25.2v230.8h144.8V257h-170V5zm230.8 230.8h62.4c66.4 0 102-39.2 102-104.8s-35.6-104.8-102-104.8h-62.4v209.6zm-25.2 21.2V5h88.8c78 0 127.2 47.2 127.2 126s-49.2 126-127.2 126h-88.8zm472-252l60 224h1.6l54.8-224h23.6l-64 252h-31.6l-55.6-212.8h-1.6L7703.2 257h-31.6l-64-252h24.4l56 222.8h1.6L7748.4 5h24zM7944 5h25.2v252H7944V5zm102 230.8h62.4c66.4 0 102-39.2 102-104.8s-35.6-104.8-102-104.8H8046v209.6zm-25.2 21.2V5h88.8c78 0 127.2 47.2 127.2 126s-49.2 126-127.2 126h-88.8zm430-21.2V257h-174.4V5h170.8v21.2h-146.4v89.6H8418V137h-117.2v98.8h150zM8708.8 5l60 224h1.6l54.8-224h23.6l-64 252h-31.6l-55.6-212.8h-1.6L8639.6 257H8608L8544 5h24.4l56 222.8h1.6L8684.8 5h24zm346 230.8V257h-174.4V5h170.8v21.2h-146.4v89.6H9022V137h-117.2v98.8h150zm232-48c0 43.6-31.2 69.2-90 69.2h-100.4V5h97.2c61.6 0 86 27.2 86 66.4 0 29.6-21.2 50-48.4 54.8 31.6 5.2 55.6 25.6 55.6 61.6zm-88-51.2h-78v99.2h78c41.2 0 63.6-18 63.6-49.2 0-31.6-22.4-50-63.6-50zm-78-110.4v90h76.8c40 0 57.2-16.8 57.2-44.8 0-27.2-17.2-45.2-57.2-45.2h-76.8z" fill="#ffffff" fill-rule="evenodd" stroke="none" stroke-width="1px"></path></svg>