<?xml version="1.0" encoding="UTF-8"?>
<svg width="48px" height="67px" viewBox="0 0 48 67" version="1.1" xmlns="http://www.w3.org/2000/svg" xmlns:xlink="http://www.w3.org/1999/xlink">
    <!-- Generator: Sketch 57.1 (83088) - https://sketch.com -->
    <title>basic_todo_txt</title>
    <desc>Created with Sketch.</desc>
    <g id="Page-1" stroke="none" stroke-width="1" fill="none" fill-rule="evenodd">
        <g id="NUNC-" transform="translate(-559.000000, -4015.000000)" stroke="#6DD18B">
            <g id="basic_todo_txt" transform="translate(560.000000, 4016.000000)">
                <polyline id="Path" points="13.5909091 7 0 7 0 65 46 65 46 7 32.4090909 7"></polyline>
                <path d="M11,45.5 L7,45.5" id="Path"></path>
                <path d="M16,23.5 L40,23.5" id="Path"></path>
                <path d="M16,35.5 L40,35.5" id="Path"></path>
                <path d="M16,45.5 L40,45.5" id="Path"></path>
                <path d="M16,55.5 L40,55.5" id="Path"></path>
                <path d="M11,23.5 L7,23.5" id="Path"></path>
                <path d="M11,35.5 L7,35.5" id="Path"></path>
                <path d="M11,55.5 L7,55.5" id="Path"></path>
                <polygon id="Path" fill="#FFFFFF" points="27 4.33333333 27 0 19 0 19 4.33333333 15 4.33333333 13 13 33 13 31 4.33333333"></polygon>
            </g>
        </g>
    </g>
</svg>